<?xml version="1.0" standalone="no"?><!DOCTYPE svg PUBLIC "-//W3C//DTD SVG 1.1//EN" "http://www.w3.org/Graphics/SVG/1.1/DTD/svg11.dtd"><svg t="1646960403038" class="icon" viewBox="0 0 1029 1024" version="1.1" xmlns="http://www.w3.org/2000/svg" p-id="12501" xmlns:xlink="http://www.w3.org/1999/xlink" width="16.078125" height="16"><defs><style type="text/css"></style></defs><path d="M514.803385 4.587357C233.445495 4.587357 5.097063 232.935789 5.097063 514.293678s228.348432 509.706322 509.706322 509.706322 509.706322-228.348432 509.706321-509.706322S796.161274 4.587357 514.803385 4.587357z m-366.988552 509.706321s164.125436-229.367845 366.988552-229.367844c50.460926 0 98.37332 14.271777 142.208063 35.679442l-94.805375 94.805376c-14.271777-6.626182-30.582379-10.703833-47.402688-10.703833-60.655052 0-110.096565 49.441513-110.096566 110.096566 0 16.820309 4.077651 33.130911 10.703833 47.402688l-108.05774 108.05774C211.018417 602.982578 147.814833 514.293678 147.814833 514.293678z m366.988552 229.367845c-50.460926 0-98.37332-14.271777-142.208064-35.679442l94.805376-94.805376c14.271777 6.626182 30.582379 10.703833 47.402688 10.703833 60.655052 0 110.096565-49.441513 110.096565-110.096566 0-16.820309-4.077651-33.130911-10.703833-47.402688l108.057741-108.05774c96.334495 67.281234 159.538079 155.460428 159.538078 155.460428s-164.125436 229.877551-366.988551 229.877551z" p-id="12502"></path></svg>