<?xml version="1.0" standalone="no"?><!DOCTYPE svg PUBLIC "-//W3C//DTD SVG 1.1//EN" "http://www.w3.org/Graphics/SVG/1.1/DTD/svg11.dtd"><svg t="1646960423667" class="icon" viewBox="0 0 1029 1024" version="1.1" xmlns="http://www.w3.org/2000/svg" p-id="12753" xmlns:xlink="http://www.w3.org/1999/xlink" width="16.078125" height="16"><defs><style type="text/css"></style></defs><path d="M514.803385 514.293678m-110.096566 0a110.096565 110.096565 0 1 0 220.193131 0 110.096565 110.096565 0 1 0-220.193131 0Z" p-id="12754"></path><path d="M514.803385 4.587357C233.445495 4.587357 5.097063 232.935789 5.097063 514.293678s228.348432 509.706322 509.706322 509.706322 509.706322-228.348432 509.706321-509.706322S796.161274 4.587357 514.803385 4.587357z m0 739.074166c-202.863116 0-366.988552-229.367845-366.988552-229.367845s164.125436-229.367845 366.988552-229.367844 366.988552 229.367845 366.988551 229.367844-164.125436 229.367845-366.988551 229.367845z" p-id="12755"></path></svg>