<?xml version="1.0" standalone="no"?><!DOCTYPE svg PUBLIC "-//W3C//DTD SVG 1.1//EN" "http://www.w3.org/Graphics/SVG/1.1/DTD/svg11.dtd"><svg t="1614568229843" class="icon" viewBox="0 0 1171 1024" version="1.1" xmlns="http://www.w3.org/2000/svg" p-id="1945" xmlns:xlink="http://www.w3.org/1999/xlink" width="228.7109375" height="200"><defs><style type="text/css"></style></defs><path d="M146.285714 585.142857l987.428571 0q14.857143 0 25.714286 10.857143t10.857143 25.714286l0 256-146.285714 0 0-146.285714-877.714286 0 0 146.285714-146.285714 0 0-694.857143q0-14.857143 10.857143-25.714286t25.714286-10.857143l73.142857 0q14.857143 0 25.714286 10.857143t10.857143 25.714286l0 402.285714zm329.142857-182.857143q0-60.571429-42.857143-103.428571t-103.428571-42.857143-103.428571 42.857143-42.857143 103.428571 42.857143 103.428571 103.428571 42.857143 103.428571-42.857143 42.857143-103.428571zm694.857143 146.285714l0-36.571429q0-90.857143-64.285714-155.142857t-155.142857-64.285714l-402.285714 0q-14.857143 0-25.714286 10.857143t-10.857143 25.714286l0 219.428571 658.285714 0z" p-id="1946"></path></svg>